<?xml version="1.0" encoding="utf-8"?>
<svg version="1.1" xmlns="http://www.w3.org/2000/svg" xmlns:xlink="http://www.w3.org/1999/xlink" width="505px" height="505px" viewBox="0 0 505 505">
  <g transform="translate(2.5,2.5)">
    <circle fill="#000" fill-opacity=".05" cx="250" cy="250" r="250"/>
    <g fill="none" stroke="#808080" stroke-linecap="round">
      <path id="deg10" transform="rotate(10,250,250)" d="M250,0v30 M250,500v-30 M0,250h30 M500,250h-30"/>
      <use xlink:href="#deg10" transform="rotate(10,250,250)"/>
      <use xlink:href="#deg10" transform="rotate(20,250,250)"/>
      <use xlink:href="#deg10" transform="rotate(30,250,250)"/>
      <use xlink:href="#deg10" transform="rotate(40,250,250)"/>
      <use xlink:href="#deg10" transform="rotate(50,250,250)"/>
      <use xlink:href="#deg10" transform="rotate(60,250,250)"/>
      <use xlink:href="#deg10" transform="rotate(70,250,250)"/>
      <path id="deg5" transform="rotate(5,250,250)" d="M250,0v20 M250,500v-20 M0,250h20 M500,250h-20"/>
      <use xlink:href="#deg5" transform="rotate(10,250,250)"/>
      <use xlink:href="#deg5" transform="rotate(20,250,250)"/>
      <use xlink:href="#deg5" transform="rotate(30,250,250)"/>
      <use xlink:href="#deg5" transform="rotate(40,250,250)"/>
      <use xlink:href="#deg5" transform="rotate(50,250,250)"/>
      <use xlink:href="#deg5" transform="rotate(60,250,250)"/>
      <use xlink:href="#deg5" transform="rotate(70,250,250)"/>
      <use xlink:href="#deg5" transform="rotate(80,250,250)"/>
      <g id="gdeg1">
        <path id="deg1" transform="rotate(1,250,250)" d="M250,0v10 M250,500v-10 M0,250h10 M500,250h-10"/>
        <use xlink:href="#deg1" transform="rotate(1,250,250)"/>
        <use xlink:href="#deg1" transform="rotate(2,250,250)"/>
        <use xlink:href="#deg1" transform="rotate(3,250,250)"/>
        <use xlink:href="#deg1" transform="rotate(5,250,250)"/>
        <use xlink:href="#deg1" transform="rotate(6,250,250)"/>
        <use xlink:href="#deg1" transform="rotate(7,250,250)"/>
        <use xlink:href="#deg1" transform="rotate(8,250,250)"/>
      </g>
      <use xlink:href="#gdeg1" transform="rotate(10,250,250)"/>
      <use xlink:href="#gdeg1" transform="rotate(20,250,250)"/>
      <use xlink:href="#gdeg1" transform="rotate(30,250,250)"/>
      <use xlink:href="#gdeg1" transform="rotate(40,250,250)"/>
      <use xlink:href="#gdeg1" transform="rotate(50,250,250)"/>
      <use xlink:href="#gdeg1" transform="rotate(60,250,250)"/>
      <use xlink:href="#gdeg1" transform="rotate(70,250,250)"/>
      <use xlink:href="#gdeg1" transform="rotate(80,250,250)"/>
      <path stroke="#008000" d="M0,250h500 M250,0v500"/>
      <path stroke="#F00" transform="rotate(45,250,250)" d="M0,250h500 M250,0v500"/>
      <circle cx="250" cy="250" r="200"/>
      <circle cx="250" cy="250" r="150"/>
      <circle cx="250" cy="250" r="100"/>
      <circle cx="250" cy="250" r="50"/>
    </g>
    <circle fill="none" stroke="#000" cx="250" cy="250" r="250"/>
    <g font-family="'DejaVu Sans'" font-weight="bold" text-anchor="middle" font-size="12">
      <g id="set1">
        <text x="250" y="44" transform="rotate(0,250,250)">0</text>
        <text x="250" y="44" transform="rotate(10,250,250)">10</text>
        <text x="250" y="44" transform="rotate(20,250,250)">20</text>
        <text x="250" y="44" transform="rotate(30,250,250)">30</text>
        <text x="250" y="44" transform="rotate(40,250,250)">40</text>
        <text x="250" y="44" transform="rotate(50,250,250)">50</text>
        <text x="250" y="44" transform="rotate(60,250,250)">60</text>
        <text x="250" y="44" transform="rotate(70,250,250)">70</text>
        <text x="250" y="44" transform="rotate(80,250,250)">80</text>
        <text x="250" y="44" transform="rotate(90,250,250)">90</text>
      </g>
      <g id="set2">
        <text x="250" y="44" transform="rotate(100,250,250)">80</text>
        <text x="250" y="44" transform="rotate(110,250,250)">70</text>
        <text x="250" y="44" transform="rotate(120,250,250)">60</text>
        <text x="250" y="44" transform="rotate(130,250,250)">50</text>
        <text x="250" y="44" transform="rotate(140,250,250)">40</text>
        <text x="250" y="44" transform="rotate(150,250,250)">30</text>
        <text x="250" y="44" transform="rotate(160,250,250)">20</text>
        <text x="250" y="44" transform="rotate(170,250,250)">10</text>
      </g>
      <use xlink:href="#set1" transform="rotate(180,250,250)"/>
      <use xlink:href="#set2" transform="rotate(180,250,250)"/>
    </g>
  </g>
</svg>
